<svg width="32" height="32" viewBox="0 0 32 32" fill="none" xmlns="http://www.w3.org/2000/svg">
<path fill-rule="evenodd" clip-rule="evenodd" d="M25.5 17.262H21C18.5145 17.262 16.5 19.2765 16.5 21.762V26.262C16.5 28.7475 18.5145 30.762 21 30.762H25.5C27.9855 30.762 30 28.7475 30 26.262V21.762C30 19.2765 27.9855 17.262 25.5 17.262ZM9 17.262H4.5C2.0145 17.262 0 19.2765 0 21.762V26.262C0 28.7475 2.0145 30.762 4.5 30.762H9C11.4855 30.762 13.5 28.7475 13.5 26.262V21.762C13.5 19.2765 11.4855 17.262 9 17.262ZM25.5 0.761963H21C18.5145 0.761963 16.5 2.77646 16.5 5.26196V9.76196C16.5 12.2475 18.5145 14.262 21 14.262H25.5C27.9855 14.262 30 12.2475 30 9.76196V5.26196C30 2.77646 27.9855 0.761963 25.5 0.761963ZM13.5 5.26196V9.76196C13.5 12.2475 11.4855 14.262 9 14.262H4.5C2.0145 14.262 0 12.2475 0 9.76196V5.26196C0 2.77646 2.0145 0.761963 4.5 0.761963H9C11.4855 0.761963 13.5 2.77646 13.5 5.26196Z" fill="#F6F1F1"/>
</svg>
