<svg width="32" height="32" viewBox="0 0 32 32" fill="none" xmlns="http://www.w3.org/2000/svg">
<path d="M19.9998 16H2.6665M2.6665 16L7.33317 12M2.6665 16L7.33317 20" stroke="#F6F1F1" stroke-width="2" stroke-linecap="round" stroke-linejoin="round"/>
<path d="M12.0024 9.33317C12.0186 6.43313 12.1472 4.86258 13.1717 3.83808C14.3433 2.6665 16.2289 2.6665 20.0001 2.6665H21.3334C25.1046 2.6665 26.9904 2.6665 28.1618 3.83808C29.3334 5.00965 29.3334 6.89526 29.3334 10.6665V21.3332C29.3334 25.1044 29.3334 26.99 28.1618 28.1616C27.1373 29.1861 25.5668 29.3148 22.6665 29.3309M12.0024 22.6665C12.0186 25.5665 12.1472 27.137 13.1717 28.1616C14.0268 29.0166 15.2621 29.2477 17.3332 29.3101" stroke="#F6F1F1" stroke-width="2" stroke-linecap="round"/>
</svg>
